<svg xmlns="http://www.w3.org/2000/svg" xmlns:xlink="http://www.w3.org/1999/xlink" viewBox="0 0 228.51 235.99"><defs><style>.cls-1{isolation:isolate;}.cls-2{opacity:0.4;mix-blend-mode:multiply;fill:url(#linear-gradient);}.cls-3{fill:#f2a7c5;}.cls-4{fill:#a8dedb;}.cls-4,.cls-6{stroke:#1f2687;}.cls-4,.cls-5,.cls-6,.cls-7,.cls-8{stroke-miterlimit:10;stroke-width:6px;}.cls-5{fill:#cec09f;}.cls-5,.cls-7,.cls-8{stroke:#212683;}.cls-6,.cls-7{fill:none;}.cls-8{fill:#9dcc96;}.cls-9{fill:#212683;}</style><linearGradient id="linear-gradient" x1="0.66" y1="118" x2="202.38" y2="118" gradientUnits="userSpaceOnUse"><stop offset="0" stop-color="#efa6c2"/><stop offset="1" stop-color="#96cdbd"/></linearGradient></defs><title>Pet Certificate</title><g class="cls-1"><g id="Layer_2" data-name="Layer 2"><g id="Layer_1-2" data-name="Layer 1"><path class="cls-2" d="M168.79,82A50.06,50.06,0,1,0,80.47,44.94,70.78,70.78,0,0,0,52.28,183.28c0,.88-.07,1.76-.07,2.65a50.06,50.06,0,1,0,99.67-6.6h.45A50.06,50.06,0,0,0,168.79,82Z"/><rect class="cls-3" x="42.55" y="29.86" width="149.14" height="179.75" rx="8.25" ry="8.25"/><path class="cls-4" d="M91.92,29.87H64V157.42A6.54,6.54,0,0,0,70.52,164h78.23l25.42-25.66V29.87h-28"/><rect class="cls-5" x="90.11" y="64.1" width="13.54" height="23.28" rx="6.77" ry="6.77"/><rect class="cls-5" x="134.49" y="64.1" width="13.54" height="23.28" rx="6.77" ry="6.77"/><rect class="cls-5" x="112.3" y="50.9" width="13.54" height="23.28" rx="6.77" ry="6.77"/><path class="cls-5" d="M138.27,109.49l-7.55-13.08a13.46,13.46,0,0,0-23.32,0l-7.55,13.08-.14.24c-4.14,7.52,4.11,15.56,11.77,11.7a16.88,16.88,0,0,1,15.15,0c7.66,3.86,15.92-4.18,11.77-11.7Z"/><polyline class="cls-6" points="174.15 138.29 148.75 138.29 148.75 163.95"/><path class="cls-7" d="M91.92,29.86H51.68A9.14,9.14,0,0,0,42.55,39V53.93"/><path class="cls-7" d="M42.55,74.27V200.48a9.13,9.13,0,0,0,9.13,9.13H182.55a9.14,9.14,0,0,0,9.14-9.13V39a9.14,9.14,0,0,0-9.14-9.14H146.2"/><rect class="cls-8" x="91.92" y="20.26" width="54.28" height="19.22" rx="6.52" ry="6.52"/><path class="cls-9" d="M25.25,26.47H22.5V23.72a3.4,3.4,0,0,0-6.79,0v2.76H12.95a3.4,3.4,0,0,0,0,6.79H15.7V36a3.4,3.4,0,0,0,6.79,0V33.27h2.76a3.4,3.4,0,0,0,0-6.79Z"/><path class="cls-9" d="M225.12,142.12h-2.76v-2.76a3.4,3.4,0,0,0-6.79,0v2.76h-2.76a3.4,3.4,0,0,0,0,6.79h2.76v2.76a3.4,3.4,0,0,0,6.79,0v-2.76h2.76a3.4,3.4,0,0,0,0-6.79Z"/><path class="cls-9" d="M15.7,217.41H12.95v-2.76a3.4,3.4,0,0,0-6.79,0v2.76H3.4a3.4,3.4,0,0,0,0,6.79H6.15V227a3.4,3.4,0,0,0,6.79,0V224.2H15.7a3.4,3.4,0,0,0,0-6.79Z"/><circle class="cls-9" cx="42.55" cy="64.89" r="2.69"/><line class="cls-7" x1="42.55" y1="189.11" x2="139.52" y2="189.11"/><line class="cls-7" x1="145.88" y1="189.11" x2="158.22" y2="189.11"/></g></g></g></svg>