<?xml version="1.0" encoding="utf-8"?>
<!-- Generator: Adobe Illustrator 24.3.0, SVG Export Plug-In . SVG Version: 6.00 Build 0)  -->
<svg version="1.1" id="Layer_1" xmlns="http://www.w3.org/2000/svg" xmlns:xlink="http://www.w3.org/1999/xlink" x="0px" y="0px"
	 viewBox="0 0 300 300" enable-background="new 0 0 300 300" xml:space="preserve">
<g>
	<g>
		<g>
			
				<ellipse transform="matrix(0.7071 -0.7071 0.7071 0.7071 -39.6631 140.6931)" fill="#E5E5E4" cx="150" cy="118.224" rx="98.68" ry="98.68"/>
		</g>
		<g>
			<path fill="#EFEFEF" d="M62.284,118.224c0-52.649,41.272-95.543,93.198-98.402c-1.826-0.102-3.63-0.278-5.482-0.278
				c-54.491,0-98.68,44.179-98.68,98.68s44.19,98.681,98.68,98.681c1.852,0,3.657-0.177,5.482-0.279
				C103.556,213.767,62.284,170.873,62.284,118.224z"/>
		</g>
		<g>
			<path fill="#FE6F80" d="M100.954,203.772l-31.646,54.729l26.19-1.48l11.778,23.436l36.92-63.846
				C128.51,215.695,113.83,211.171,100.954,203.772z"/>
		</g>
		<g>
			<path fill="#FFA1AA" d="M121.031,212.458c-7.062-2.155-13.786-5.073-20.076-8.687l-31.646,54.729l25.944-1.467L121.031,212.458z"
				/>
		</g>
		<g>
			<path fill="#FE6F80" d="M199.046,203.772c-12.871,7.399-27.556,11.923-43.237,12.838l36.914,63.846l11.778-23.436l26.191,1.48
				L199.046,203.772z"/>
		</g>
		<g>
			<path fill="#FFA1AA" d="M179.301,212.351c-7.49,2.316-15.349,3.783-23.492,4.259l36.914,63.846l11.778-23.436l0.648,0.037
				L179.301,212.351z"/>
		</g>
		<g>
			<path fill="#7FD3B9" d="M186.041,137.972c-2.8-17.406-17.844-30.712-36.041-30.712s-33.242,13.307-36.041,30.712
				c-10.558,1.269-18.781,9.249-18.781,20.148c0,11.773,9.551,20.409,21.319,20.409c5.487,0,61.52,0,67.007,0
				c11.768,0,21.319-8.636,21.319-20.409C204.822,147.22,196.599,139.24,186.041,137.972z"/>
		</g>
		<g>
			<path fill="#BBEAD9" d="M106.142,158.12c0-10.9,8.223-18.88,18.781-20.148c2.511-15.62,14.894-27.904,30.559-30.267
				c-1.793-0.271-3.614-0.445-5.482-0.445c-18.197,0-33.242,13.307-36.041,30.712c-10.558,1.269-18.781,9.249-18.781,20.148
				c0,11.773,9.551,20.409,21.319,20.409c1.285,0,5.418,0,10.965,0C115.693,178.529,106.142,169.893,106.142,158.12z"/>
		</g>
		<g>
			<ellipse fill="#7FD3B9" cx="95.178" cy="107.26" rx="10.964" ry="16.447"/>
		</g>
		<g>
			<ellipse fill="#7FD3B9" cx="128.071" cy="74.366" rx="10.964" ry="16.447"/>
		</g>
		<g>
			<ellipse fill="#7FD3B9" cx="171.929" cy="74.366" rx="10.964" ry="16.447"/>
		</g>
		<g>
			<ellipse fill="#7FD3B9" cx="204.822" cy="107.26" rx="10.964" ry="16.447"/>
		</g>
		<g>
			<path fill="#BBEAD9" d="M89.695,107.26c0-7.653,3.506-14.03,8.223-15.863c-0.883-0.343-1.788-0.583-2.741-0.583
				c-6.05,0-10.964,7.364-10.964,16.447c0,9.083,4.915,16.447,10.964,16.447c0.953,0,1.858-0.241,2.741-0.583
				C93.202,121.289,89.695,114.913,89.695,107.26z"/>
		</g>
		<g>
			<path fill="#BBEAD9" d="M199.34,107.26c0-7.653,3.506-14.03,8.223-15.863c-0.883-0.343-1.788-0.583-2.741-0.583
				c-6.05,0-10.964,7.364-10.964,16.447c0,9.083,4.915,16.447,10.964,16.447c0.953,0,1.858-0.241,2.741-0.583
				C202.847,121.289,199.34,114.913,199.34,107.26z"/>
		</g>
		<g>
			<path fill="#BBEAD9" d="M166.447,74.366c0-7.653,3.506-14.03,8.223-15.863c-0.883-0.343-1.788-0.583-2.741-0.583
				c-6.05,0-10.965,7.364-10.965,16.447c0,9.082,4.915,16.447,10.965,16.447c0.953,0,1.858-0.241,2.741-0.583
				C169.953,88.396,166.447,82.019,166.447,74.366z"/>
		</g>
		<g>
			<path fill="#BBEAD9" d="M122.589,74.366c0-7.653,3.506-14.03,8.223-15.863c-0.883-0.343-1.788-0.583-2.741-0.583
				c-6.05,0-10.965,7.364-10.965,16.447c0,9.082,4.915,16.447,10.965,16.447c0.953,0,1.858-0.241,2.741-0.583
				C126.095,88.396,122.589,82.019,122.589,74.366z"/>
		</g>
	</g>
	<g>
		<g>
			<path fill="#161616" d="M107.277,285.939c-0.053,0-0.107,0-0.161-0.003c-2.013-0.059-3.833-1.218-4.738-3.017l-10.164-20.221
				l-22.595,1.277c-2.053,0.086-3.924-0.889-4.979-2.602c-1.057-1.716-1.087-3.874-0.078-5.616l31.646-54.729
				c1.515-2.615,4.861-3.501,7.479-2.01c12.509,7.19,26.247,11.27,40.831,12.118c1.895,0.112,3.603,1.199,4.508,2.875
				c0.899,1.673,0.867,3.697-0.086,5.343L112.023,283.2C111.041,284.897,109.231,285.939,107.277,285.939z M95.496,251.538
				c2.064,0,3.965,1.162,4.899,3.02l7.22,14.364l27.583-47.699c-11.28-1.585-22.049-4.966-32.163-10.097l-23.896,41.328
				l16.048-0.907C95.29,251.541,95.394,251.538,95.496,251.538z"/>
		</g>
		<g>
			<path fill="#161616" d="M183.504,184.011h-67.008c-15.028,0-26.801-11.371-26.801-25.891c0-11.875,8.052-21.782,19.646-24.836
				c4.717-18.473,21.241-31.507,40.659-31.507s35.94,13.034,40.662,31.507c11.591,3.054,19.643,12.964,19.643,24.836
				C210.305,172.64,198.532,184.011,183.504,184.011z M150,112.742c-15.317,0-28.193,10.975-30.623,26.1
				c-0.391,2.415-2.332,4.28-4.762,4.572c-8.215,0.988-13.955,7.035-13.955,14.707c0,8.51,6.807,14.926,15.836,14.926h67.008
				c9.027,0,15.837-6.417,15.837-14.926c0-7.672-5.739-13.719-13.952-14.707c-2.431-0.292-4.369-2.158-4.759-4.572
				C178.198,123.72,165.317,112.742,150,112.742z"/>
		</g>
		<g>
			<path fill="#161616" d="M95.177,129.189c-9.222,0-16.447-9.631-16.447-21.929s7.225-21.929,16.447-21.929
				c9.222,0,16.447,9.631,16.447,21.929S104.399,129.189,95.177,129.189z M95.177,96.295c-2.182,0-5.482,4.374-5.482,10.964
				s3.301,10.965,5.482,10.965c2.182,0,5.482-4.374,5.482-10.965S97.359,96.295,95.177,96.295z"/>
		</g>
		<g>
			<path fill="#161616" d="M128.071,96.295c-9.224,0-16.447-9.631-16.447-21.929s7.222-21.929,16.447-21.929
				c9.225,0,16.447,9.631,16.447,21.929S137.296,96.295,128.071,96.295z M128.071,63.402c-2.184,0-5.482,4.374-5.482,10.965
				c0,6.59,3.298,10.965,5.482,10.965c2.184,0,5.482-4.374,5.482-10.965C133.553,67.776,130.255,63.402,128.071,63.402z"/>
		</g>
		<g>
			<path fill="#161616" d="M171.929,96.295c-9.225,0-16.447-9.631-16.447-21.929s7.222-21.929,16.447-21.929
				s16.447,9.631,16.447,21.929S181.154,96.295,171.929,96.295z M171.929,63.402c-2.184,0-5.482,4.374-5.482,10.965
				c0,6.59,3.298,10.965,5.482,10.965s5.482-4.374,5.482-10.965C177.411,67.776,174.113,63.402,171.929,63.402z"/>
		</g>
		<g>
			<path fill="#161616" d="M204.822,129.189c-9.225,0-16.447-9.631-16.447-21.929s7.222-21.929,16.447-21.929
				s16.447,9.631,16.447,21.929S214.047,129.189,204.822,129.189z M204.822,96.295c-2.184,0-5.482,4.374-5.482,10.964
				s3.298,10.965,5.482,10.965c2.184,0,5.482-4.374,5.482-10.965S207.007,96.295,204.822,96.295z"/>
		</g>
		<g>
			<path fill="#161616" d="M150,222.387c-57.435,0-104.163-46.728-104.163-104.163c0-24.967,9.045-49.155,25.468-68.113
				c1.978-2.283,5.448-2.543,7.734-0.554c2.289,1.984,2.538,5.445,0.554,7.734c-14.696,16.963-22.791,38.603-22.791,60.934
				c0,51.391,41.807,93.198,93.198,93.198s93.198-41.808,93.198-93.198S201.391,25.026,150,25.026
				c-19.921,0-38.997,6.296-55.162,18.211c-2.441,1.791-5.87,1.274-7.667-1.162c-1.796-2.439-1.274-5.87,1.162-7.667
				c18.066-13.312,39.39-20.347,61.667-20.347c57.435,0,104.163,46.728,104.163,104.163S207.435,222.387,150,222.387z"/>
		</g>
		<g>
			<path fill="#161616" d="M192.723,285.939c-1.954,0-3.764-1.041-4.743-2.738l-36.914-63.846c-0.953-1.646-0.985-3.67-0.086-5.343
				c0.905-1.676,2.613-2.763,4.508-2.875c14.584-0.851,28.321-4.928,40.828-12.118c2.613-1.499,5.969-0.608,7.474,2.01l6.885,11.907
				c1.52,2.621,0.621,5.975-1.997,7.49c-2.634,1.518-5.98,0.618-7.49-2.002l-4.224-7.294c-10.108,5.129-20.88,8.51-32.155,10.094
				l27.577,47.697l7.217-14.362c0.98-1.949,2.902-3.164,5.209-3.011l16.051,0.907l-8.689-15.028
				c-1.521-2.621-0.621-5.975,1.997-7.49c2.623-1.518,5.98-0.621,7.49,2.002l13.775,23.819c1.012,1.743,0.98,3.9-0.075,5.616
				c-1.055,1.716-2.827,2.741-4.979,2.602l-22.598-1.277l-10.161,20.221c-0.905,1.799-2.725,2.958-4.738,3.017
				C192.83,285.939,192.777,285.939,192.723,285.939z"/>
		</g>
	</g>
</g>
</svg>
