<?xml version="1.0" encoding="utf-8"?>
<!-- Generator: Adobe Illustrator 22.0.0, SVG Export Plug-In . SVG Version: 6.00 Build 0)  -->
<svg version="1.1" xmlns="http://www.w3.org/2000/svg" xmlns:xlink="http://www.w3.org/1999/xlink" x="0px" y="0px"
	 viewBox="0 0 512 512" style="enable-background:new 0 0 512 512;" xml:space="preserve">
<style type="text/css">
	.st0{fill:#EFEFEF;}
	.st1{fill:#EDEDED;}
	.st2{fill:#E1902B;}
	.st3{fill:#827382;}
	.st4{fill:#98CDE6;}
	.st5{clip-path:url(#SVGID_2_);fill:#43B06D;}
	.st6{clip-path:url(#SVGID_2_);fill:#4D917B;}
	.st7{fill:#FFDBC5;}
	.st8{fill:#E8B494;}
	.st9{fill:#DB4646;}
	.st10{fill:#E7AD84;}
	.st11{fill:#9EC853;}
	.st12{fill:#EBB290;}
	.st13{fill:#2961A5;}
	.st14{fill:#D49670;}
	.st15{fill:#4D917B;}
	.st16{fill:#78BEDE;}
	.st17{fill:#D4CDC1;}
	.st18{fill:#A18FA1;}
	.st19{fill:#3D2A3D;}
	.st20{fill:#FF826E;}
	.st21{fill:#E6A585;}
	.st22{fill:#142A7A;}
	.st23{fill:#FFD66C;}
	.st24{fill:#00D3D5;}
	.st25{fill:#B9EAF0;}
	.st26{fill:#EDB87B;}
	.st27{clip-path:url(#SVGID_4_);}
	.st28{fill:#D9904C;}
	.st29{fill:#F7B58D;}
	.st30{fill:#F7C8AB;}
	.st31{fill:#BABABA;}
	.st32{fill:#163A63;}
	.st33{fill:#F5BB47;}
	.st34{fill:#FFE999;}
	.st35{clip-path:url(#SVGID_6_);}
	.st36{fill:#B3B3B3;}
	.st37{fill:#F2C9B1;}
	.st38{clip-path:url(#SVGID_8_);}
	.st39{fill:#F2D7C4;}
	.st40{fill:#5D5660;}
	.st41{fill:#3B2D3F;}
	.st42{fill:#997999;}
	.st43{fill:#170F17;}
	.st44{clip-path:url(#SVGID_10_);}
</style>
<g id="Layer_6">
</g>
<g id="Layer_9">
</g>
<g id="Layer_7">
	<g>
		<g>
			<g>
				<path class="st9" d="M394.3,201c-0.3-39.6-32.7-71.5-72.4-71.1c-32.6,0.3-59.8,22.2-68.4,52c-9-29.6-36.7-51.1-69.2-50.8
					c-39.6,0.3-71.5,32.7-71.1,72.4c0.2,21.9,10.2,41.4,25.8,54.5c0.6,0.7,1.2,1.5,1.8,2.2l82.5,98.1c18.2,21.6,47.6,21.3,65.4-0.6
					l80.8-99.5c1.9-2.3,3.5-4.6,4.8-6.8C386.8,238.3,394.5,220.5,394.3,201z"/>
				<g>
					<path class="st10" d="M181,149.6c-25,5-42.5,24.9-45.6,49.9c-1.2,9.7,14.1,9.6,15.2,0c2.3-18.5,16.6-31.7,34.4-35.2
						C194.7,162.3,190.6,147.6,181,149.6L181,149.6z"/>
				</g>
			</g>
			<g>
				<path class="st19" d="M298,280c0,12.2-9.8,22-22,22h-45c-12.2,0-22-9.8-22-22l0,0c0-12.2,9.8-22,22-22h45
					C288.2,258,298,267.8,298,280L298,280z"/>
				<path class="st19" d="M275.5,263.1c0,15.3-9.9,27.8-22.2,27.8c-12.3,0-22.2-12.4-22.2-27.8c0-15.3,9.9-27.8,22.2-27.8
					C265.6,235.4,275.5,247.8,275.5,263.1z"/>
				<g>
					<path class="st19" d="M293.2,219.2c0,9.5-7.7,17.2-17.2,17.2c-9.5,0-17.2-7.7-17.2-17.2c0-9.5,7.7-17.2,17.2-17.2
						C285.5,202,293.2,209.7,293.2,219.2z"/>
					<path class="st19" d="M247.8,219.2c0,9.5-7.7,17.2-17.2,17.2c-9.5,0-17.2-7.7-17.2-17.2c0-9.5,7.7-17.2,17.2-17.2
						C240.1,202,247.8,209.7,247.8,219.2z"/>
				</g>
				<g>
					
						<ellipse transform="matrix(0.1609 -0.987 0.987 0.1609 -77.244 406.6472)" class="st19" cx="200.5" cy="248.8" rx="14.4" ry="14.4"/>
					<path class="st19" d="M320.5,248.8c0,7.9-6.4,14.4-14.4,14.4c-7.9,0-14.4-6.4-14.4-14.4c0-7.9,6.4-14.4,14.4-14.4
						C314,234.4,320.5,240.8,320.5,248.8z"/>
				</g>
			</g>
		</g>
	</g>
</g>
</svg>
