<?xml version="1.0" encoding="utf-8"?>
<!-- Generator: Adobe Illustrator 22.0.0, SVG Export Plug-In . SVG Version: 6.00 Build 0)  -->
<svg version="1.1" xmlns="http://www.w3.org/2000/svg" xmlns:xlink="http://www.w3.org/1999/xlink" x="0px" y="0px"
	 viewBox="0 0 512 512" style="enable-background:new 0 0 512 512;" xml:space="preserve">
<style type="text/css">
	.st0{fill:#E1902B;}
	.st1{fill:#3D2A3D;}
	.st2{fill:#E7AD84;}
	.st3{fill:#2961A5;}
	.st4{fill:#FFD66C;}
	.st5{fill:#A18FA1;}
	.st6{fill:#DB4646;}
	.st7{fill:#78BEDE;}
	.st8{fill:#43B06D;}
	.st9{fill:#9EC853;}
	.st10{fill:#217D44;}
	.st11{fill:#DBDBDB;}
	.st12{fill:#FFFFFF;}
	.st13{fill:#C41E1E;}
	.st14{fill:#B9BDC2;}
	.st15{fill:#856685;}
	.st16{fill:#E8E8E8;}
	.st17{fill:#BDBDBD;}
	.st18{fill:#839797;}
	.st19{fill:#D9D9D9;}
	.st20{fill:#F0F0F0;}
	.st21{fill:#BFBFBF;}
	.st22{fill:#706470;}
	.st23{fill:#4B1E4C;}
	.st24{fill:#614F61;}
	.st25{fill:#A37352;}
	.st26{fill:#7A6C7A;}
	.st27{fill:#919191;}
	.st28{fill:#6E6E6E;}
	.st29{fill:#B8B8B8;}
	.st30{fill:#FF826E;}
	.st31{fill:#7D5737;}
	.st32{fill:#2E1B17;}
	.st33{fill:#483324;}
	.st34{fill:#9E9E9E;}
	.st35{fill:#7D6F7D;}
	.st36{fill:#6B4A6B;}
	.st37{fill:#4A80C2;}
	.st38{fill:#B34B0F;}
	.st39{fill:#FFC682;}
	.st40{clip-path:url(#SVGID_2_);fill:#DBDBDB;}
	.st41{fill:#FFDBC5;}
	.st42{fill:#E3E3E3;}
	.st43{clip-path:url(#SVGID_4_);}
	.st44{clip-path:url(#SVGID_6_);fill:#DBDBDB;}
	.st45{clip-path:url(#SVGID_8_);}
	.st46{fill:#E8B494;}
	.st47{fill:#F2D7C4;}
	.st48{fill:#5D5660;}
	.st49{fill:#3B2D3F;}
	.st50{fill:#756275;}
	.st51{fill:#E1622B;}
	.st52{fill:#F0E9E9;}
	.st53{fill:#4D917B;}
	.st54{fill:#C4C4C4;}
	.st55{fill:#14855A;}
	.st56{fill:#C21B1B;}
</style>
<g id="Layer_9">
	<path class="st4" d="M512,256c0,141.4-114.6,256-256,256C114.6,512,0,397.4,0,256C0,114.6,114.6,0,256,0C397.4,0,512,114.6,512,256
		z"/>
</g>
<g id="Layer_7">
	<g>
		<g>
			<path class="st6" d="M406.1,197.9c-0.4-42.3-35-76.3-77.3-75.9c-34.8,0.3-63.9,23.7-73,55.5c-9.6-31.6-39.2-54.5-73.9-54.2
				c-42.3,0.4-76.3,35-75.9,77.3c0.2,23.4,10.9,44.2,27.6,58.2c0.6,0.8,1.2,1.6,1.9,2.4l88.1,104.7c19.4,23.1,50.8,22.8,69.8-0.6
				L379.6,259c2-2.5,3.7-4.9,5.1-7.3C398.1,237.8,406.3,218.8,406.1,197.9z"/>
			<g>
				<g>
					<g>
						<path class="st2" d="M178.8,143.1c-26.7,5.4-45.3,26.6-48.6,53.3c-1.3,10.4,15,10.3,16.3,0c2.4-19.8,17.7-33.8,36.7-37.6
							C193.4,156.7,189.1,141,178.8,143.1L178.8,143.1z"/>
					</g>
				</g>
			</g>
		</g>
		<g>
			<path class="st12" d="M301,280c0,12.2-9.8,22-22,22h-45c-12.2,0-22-9.8-22-22l0,0c0-12.2,9.8-22,22-22h45
				C291.2,258,301,267.8,301,280L301,280z"/>
			<path class="st12" d="M278.5,263.6c0,15.3-9.9,27.8-22.2,27.8c-12.3,0-22.2-12.4-22.2-27.8c0-15.3,9.9-27.8,22.2-27.8
				C268.6,235.8,278.5,248.2,278.5,263.6z"/>
			<g>
				<path class="st12" d="M296.2,219.6c0,9.5-7.7,17.2-17.2,17.2c-9.5,0-17.2-7.7-17.2-17.2c0-9.5,7.7-17.2,17.2-17.2
					C288.5,202.5,296.2,210.2,296.2,219.6z"/>
				<path class="st12" d="M250.8,219.6c0,9.5-7.7,17.2-17.2,17.2c-9.5,0-17.2-7.7-17.2-17.2c0-9.5,7.7-17.2,17.2-17.2
					C243.1,202.5,250.8,210.2,250.8,219.6z"/>
			</g>
			<g>
				
					<ellipse transform="matrix(0.1602 -0.9871 0.9871 0.1602 -75.0406 410.1783)" class="st12" cx="203.5" cy="249.2" rx="14.4" ry="14.4"/>
				<path class="st12" d="M323.5,249.2c0,7.9-6.4,14.4-14.4,14.4c-7.9,0-14.4-6.4-14.4-14.4c0-7.9,6.4-14.4,14.4-14.4
					C317,234.8,323.5,241.2,323.5,249.2z"/>
			</g>
		</g>
	</g>
</g>
</svg>
